<svg xmlns="http://www.w3.org/2000/svg" xmlns:xlink="http://www.w3.org/1999/xlink" width="200" height="200" viewBox="0 0 200 200">
  <defs>
    <linearGradient id="linear-gradient" x1="0.648" y1="0.483" x2="-0.345" y2="0.597" gradientUnits="objectBoundingBox">
      <stop offset="0" stop-color="#f03e3e"/>
      <stop offset="1" stop-color="#ffa8a8"/>
    </linearGradient>
  </defs>
  <g id="그룹_2413" data-name="그룹 2413" transform="translate(-28 226.203)">
    <path id="패스_329" data-name="패스 329" d="M366.058,391.293A33.2,33.2,0,0,0,346,380.938l0,0L333.84,379.3c-6.362-1.254-11.16-1.237-16.258-6.08-4.745-4.885-8.189-8.148-8.978-14.913l-.225-9.421a74.238,74.238,0,0,0-1.615-13.646c-.581-4.04-.01-6.9,3.209-10.114l4.132-4.132c3.273-3.273,8.546-3.729,11.046-3.748.465.025.932.04,1.4.04,14.2,0,28.467-8.757,28.467-22.958A25.9,25.9,0,0,0,329.2,268.5c-14.2,0-22.957,14.266-22.957,28.467,0,.471.014.938.039,1.4-.019,2.5-.475,7.774-3.748,11.047l-4.132,4.132c-3.273,3.273-17.268,1.047-20.407,0,0,0-21.294-4.057-26.179-8.8a31.194,31.194,0,0,1-8.884-16.363l-1.64-12.164v0a33.325,33.325,0,1,0-37.4,37.4h0l12.164,1.64a31.2,31.2,0,0,1,16.36,8.881c4.745,4.885,7.462,10.968,8.949,19.3,0,0,1.682,10.593,2.129,13.236.583,3.776.154,7.25-1.708,9.965-.464.677-.991,1.321-6.86,7.19-4.883,4.15-10.916,4.764-14.109,4.787-.594-.032-1.19-.05-1.792-.05-18.138,0-36.361,11.185-36.361,29.323a33.082,33.082,0,0,0,32.979,32.979c18.138,0,29.273-15.739,29.273-33.877,0-.6.032-3.681,0-4.275-.369-5.54.309-7.865,4.515-13.729a68.9,68.9,0,0,1,4.688-5.54c1.989-1.989,3.459-3.822,10.028-3.724,0,0,6.045.389,11.888,1.085l6.728.893c6.763.789,10.432,3.36,15.317,8.1a31.193,31.193,0,0,1,8.884,16.363l1.64,12.164,0,0a33.325,33.325,0,1,0,57.453-27.042Z" transform="translate(-146.928 -473.504)" fill="url(#linear-gradient)"/>
    <path id="패스_330" data-name="패스 330" d="M461.135,508.25l-22.123-12.773a3.47,3.47,0,0,0-5.206,3.005v25.545a3.47,3.47,0,0,0,5.206,3.005l22.123-12.772A3.47,3.47,0,0,0,461.135,508.25Z" transform="translate(-318.231 -637.477)" fill="#fff"/>
  </g>
</svg>
